<?xml version="1.0" encoding="UTF-8"?>
<svg id="Layer_1" data-name="Layer 1" xmlns="http://www.w3.org/2000/svg" viewBox="0 0 500 500">
  <defs>
    <style>
      .cls-1 {
        fill: #3b82f6;
      }

      .cls-1, .cls-2 {
        stroke-width: 0px;
      }

      .cls-2 {
        fill: #bdddf4;
      }
    </style>
  </defs>
  <circle class="cls-1" cx="250" cy="250" r="247.69"/>
  <path class="cls-2" d="M432.09,194.88c0-38.31-31.05-69.36-69.36-69.36-11.56,0-22.44,2.87-32.02,7.87-20.63-28.01-53.75-46.26-91.21-46.26-50.85,0-93.88,33.49-108.23,79.63-26.91,6.25-45.96,30.23-45.98,57.86.02,29.07,21.07,53.86,49.75,58.59,2.14,39.13,34.45,70.22,74.11,70.22,21.56,0,40.92-9.24,54.5-23.91,14.02,15.24,33.79,23.91,54.5,23.91,41.05,0,74.31-33.26,74.31-74.31-.02-6.85-.98-13.67-2.86-20.26,25.75-10.82,42.5-36.03,42.5-63.96Z"/>
  <circle class="cls-2" cx="124.92" cy="383.15" r="29.73"/>
</svg>